<?xml version="1.0" standalone="no"?>
<!DOCTYPE svg PUBLIC "-//W3C//DTD SVG 20010904//EN"
 "http://www.w3.org/TR/2001/REC-SVG-20010904/DTD/svg10.dtd">
<svg version="1.0" xmlns="http://www.w3.org/2000/svg"
 width="512.000000pt" height="512.000000pt" viewBox="0 0 512.000000 512.000000"
 preserveAspectRatio="xMidYMid meet">

<g transform="translate(0.000000,512.000000) scale(0.100000,-0.100000)"
fill="#000000" stroke="none">
<path d="M3070 4774 c-14 -2 -65 -11 -115 -20 -100 -18 -244 -63 -320 -102
-74 -37 -202 -124 -264 -179 -145 -127 -265 -354 -337 -633 -15 -55 -18 -143
-23 -565 l-6 -500 -422 -3 -423 -2 0 -470 0 -470 423 -2 422 -3 3 -912 2 -913
490 0 490 0 0 915 0 915 415 0 415 0 5 23 c6 29 115 877 115 900 0 16 -29 17
-475 17 l-475 0 0 328 c0 360 10 527 35 586 22 53 100 127 165 158 90 43 155
50 484 55 l309 5 -5 415 c-3 228 -9 418 -14 423 -17 16 -258 31 -564 35 -168
2 -316 2 -330 -1z"/>
</g>
</svg>
