<?xml version="1.0" standalone="no"?>
<!DOCTYPE svg PUBLIC "-//W3C//DTD SVG 20010904//EN"
 "http://www.w3.org/TR/2001/REC-SVG-20010904/DTD/svg10.dtd">
<svg version="1.0" xmlns="http://www.w3.org/2000/svg"
 width="3508.000000pt" height="2480.000000pt" viewBox="0 0 3508.000000 2480.000000"
 preserveAspectRatio="xMidYMid meet">

<g transform="translate(0.000000,2480.000000) scale(0.100000,-0.100000)"
fill="#000000" stroke="none">
<path d="M17940 14173 c-58 -6 -194 -35 -205 -43 -5 -4 -23 -10 -40 -14 -103
-25 -289 -146 -366 -238 -98 -118 -142 -206 -203 -405 -30 -96 -36 -188 -36
-545 l0 -358 -337 0 -338 0 0 -380 0 -380 337 0 338 0 2 -1082 3 -1083 90 -13
c102 -16 572 -22 648 -9 l47 8 0 1090 0 1089 334 0 333 0 11 78 c5 42 24 185
41 317 17 132 34 268 39 303 l8 62 -383 0 -384 0 3 333 c4 377 8 397 82 468
85 82 169 99 494 99 l217 0 -3 339 -3 339 -37 6 c-117 19 -578 31 -692 19z"/>
</g>
</svg>
