<?xml version="1.0" standalone="no"?>
<!DOCTYPE svg PUBLIC "-//W3C//DTD SVG 20010904//EN"
 "http://www.w3.org/TR/2001/REC-SVG-20010904/DTD/svg10.dtd">
<svg version="1.0" xmlns="http://www.w3.org/2000/svg"
 width="302.000000pt" height="167.000000pt" viewBox="0 0 302.000000 167.000000"
 preserveAspectRatio="xMidYMid meet">

<g transform="translate(0.000000,167.000000) scale(0.100000,-0.100000)"
fill="#000000" stroke="none">
<path d="M972 1420 l3 -100 -102 0 -103 0 0 -290 0 -290 100 0 100 0 0 -100 0
-100 100 0 100 0 0 -100 0 -100 98 0 97 0 0 -95 0 -95 199 0 199 0 -6 65 c-4
36 -4 79 0 95 l6 30 93 0 94 0 0 100 0 100 100 0 100 0 0 100 0 100 100 0 100
0 0 290 0 290 -100 0 -100 0 0 100 0 100 -295 0 -295 0 0 -100 0 -100 -100 0
-100 0 0 100 0 100 -196 0 -195 0 3 -100z"/>
</g>
</svg>
