<?xml version="1.0" standalone="no"?>
<!DOCTYPE svg PUBLIC "-//W3C//DTD SVG 20010904//EN"
 "http://www.w3.org/TR/2001/REC-SVG-20010904/DTD/svg10.dtd">
<svg version="1.0" xmlns="http://www.w3.org/2000/svg"
 width="2400.000000pt" height="3300.000000pt" viewBox="0 0 2400.000000 3300.000000"
 preserveAspectRatio="xMidYMid meet">

<g transform="translate(0.000000,3300.000000) scale(0.100000,-0.100000)"
fill="#000000" stroke="none">
<path d="M8897 20870 c-15 -5 -70 -52 -123 -105 l-95 -96 -44 7 c-42 6 -47 4
-81 -30 -33 -33 -35 -38 -29 -81 l7 -45 -94 -93 c-52 -50 -100 -101 -106 -113
-12 -22 -17 -619 -5 -682 4 -26 30 -58 104 -132 l99 -99 -2 -50 -2 -49 118
-114 c66 -63 134 -119 154 -128 30 -11 106 -14 397 -15 198 0 373 4 388 8 16
4 50 27 75 51 38 35 57 44 97 50 64 8 86 31 96 98 7 44 15 59 46 88 22 19 67
65 101 102 l62 67 0 100 0 100 50 49 50 49 0 192 c0 212 -2 221 -64 280 -32
31 -36 41 -36 86 l0 51 -181 183 -181 183 -47 -5 c-45 -5 -47 -4 -98 49 l-53
54 -287 -1 c-159 0 -300 -4 -316 -9z"/>
<path d="M13759 18310 l-45 -50 -105 0 -105 0 -96 -100 -96 -100 -55 0 c-34 0
-61 -5 -69 -14 -144 -149 -273 -278 -288 -286 -10 -5 -57 -10 -105 -10 -79 0
-88 2 -111 25 l-26 26 3 206 3 205 -27 24 -28 24 -704 0 -704 0 -26 -22 -26
-23 1 -2574 0 -2574 22 -24 21 -23 712 0 712 0 21 23 22 23 1 1604 c0 1054 4
1611 11 1623 5 11 30 39 55 63 l46 43 -6 97 -7 97 36 31 c20 17 46 42 58 55
11 13 51 54 89 92 67 69 68 69 122 69 58 0 69 7 112 65 21 30 23 30 132 35
l110 5 49 48 48 47 198 0 198 0 48 -50 48 -50 102 0 101 0 126 -126 125 -125
-7 -45 c-6 -45 -6 -46 49 -99 l56 -53 0 -142 c0 -156 3 -166 62 -221 l38 -36
0 -1499 c0 -825 0 -1507 0 -1516 0 -10 10 -26 22 -38 21 -20 31 -20 734 -20
l713 0 25 23 c16 13 27 34 28 52 1 17 1 857 0 1868 l-2 1839 -50 48 -50 48 0
152 0 152 -50 49 c-48 46 -50 51 -50 102 0 52 -2 55 -50 99 -48 44 -50 48 -50
99 l0 53 -277 278 -278 278 -54 0 c-51 0 -55 2 -99 50 l-45 50 -105 0 -105 0
-45 50 -45 50 -512 0 -511 0 -45 -50z"/>
<path d="M8455 18234 l-25 -27 0 -2559 c0 -2727 -2 -2604 44 -2621 11 -4 1458
-11 1543 -8 7 1 20 13 29 27 16 24 17 104 15 1072 -1 576 -6 1704 -11 2507 -6
803 -7 1481 -4 1507 7 54 -8 103 -37 118 -11 6 -309 10 -774 10 l-756 0 -24
-26z"/>
</g>
</svg>
