<?xml version="1.0" standalone="no"?>
<!DOCTYPE svg PUBLIC "-//W3C//DTD SVG 20010904//EN"
 "http://www.w3.org/TR/2001/REC-SVG-20010904/DTD/svg10.dtd">
<svg version="1.0" xmlns="http://www.w3.org/2000/svg"
 width="1451.000000pt" height="2096.000000pt" viewBox="0 0 1451.000000 2096.000000"
 preserveAspectRatio="xMidYMid meet">

<g transform="translate(0.000000,2096.000000) scale(0.100000,-0.100000)"
fill="#000000" stroke="none">
<path d="M3867 20949 c-104 -24 -227 -112 -291 -207 -63 -94 -89 -176 -89
-287 -3 -300 224 -525 528 -525 l62 0 1136 -1750 c626 -963 1137 -1754 1137
-1758 0 -4 -42 -27 -92 -52 -246 -118 -463 -307 -580 -505 -68 -114 -118 -277
-118 -381 l0 -44 -1103 0 c-901 0 -1132 -3 -1259 -15 -1102 -105 -2081 -714
-2673 -1660 -277 -443 -454 -958 -510 -1491 -13 -118 -15 -464 -15 -2314 0
-1460 4 -2213 11 -2290 63 -688 323 -1328 768 -1890 101 -128 410 -436 546
-544 232 -185 521 -359 790 -477 120 -52 384 -146 495 -176 l35 -9 -3 -164
c-4 -175 10 -381 33 -490 62 -293 195 -335 418 -130 113 103 291 330 442 563
l69 107 3651 0 3651 0 69 -107 c39 -60 108 -160 154 -223 397 -544 622 -611
706 -210 23 109 37 315 33 490 l-3 164 35 9 c111 30 375 124 495 176 269 118
558 292 790 477 136 108 445 416 546 544 445 562 705 1202 768 1890 7 77 11
830 11 2290 0 1850 -2 2196 -15 2314 -111 1049 -679 1987 -1557 2573 -405 270
-848 449 -1332 538 -287 52 -358 55 -1553 55 l-1103 0 0 44 c0 60 -24 169 -55
251 -92 245 -340 490 -643 635 -51 25 -91 50 -90 56 2 7 278 435 613 952 l610
939 110 5 c123 6 183 24 271 82 75 50 138 120 179 198 111 210 73 461 -95 628
-173 174 -426 206 -651 83 -65 -35 -169 -145 -203 -216 -75 -153 -75 -340 -1
-488 14 -27 22 -55 18 -62 -25 -42 -1287 -1984 -1293 -1990 -4 -4 -58 0 -121
10 -160 24 -528 24 -688 0 -63 -10 -117 -14 -121 -10 -4 4 -535 819 -1178
1811 l-1171 1803 29 62 c106 226 29 506 -176 642 -93 62 -172 85 -289 84 -55
-1 -117 -5 -138 -10z m6588 -7621 c217 -74 379 -236 453 -455 l27 -78 0 -2845
0 -2845 -27 -78 c-74 -219 -236 -381 -453 -455 l-80 -27 -4010 -3 c-4475 -3
-4092 -9 -4250 68 -151 73 -252 175 -325 325 -76 158 -70 -98 -70 3015 0 2538
1 2798 16 2863 61 271 264 471 539 532 49 11 772 13 4080 12 l4020 -2 80 -27z
m2170 -758 c246 -63 454 -245 553 -481 128 -307 52 -665 -189 -895 -110 -104
-200 -156 -346 -200 -113 -35 -297 -39 -408 -10 -202 53 -384 182 -492 349
-101 154 -137 289 -131 477 4 108 9 138 37 220 41 121 96 213 179 302 212 224
507 312 797 238z m0 -3185 c33 -9 107 -39 165 -67 93 -46 116 -63 206 -152 90
-90 106 -112 152 -206 73 -148 87 -207 87 -370 -1 -158 -14 -220 -80 -355 -78
-162 -205 -289 -370 -371 -123 -61 -224 -85 -355 -85 -368 -2 -676 227 -790
586 -34 106 -39 292 -11 407 79 333 343 576 686 632 56 8 250 -3 310 -19z"/>
</g>
</svg>
